<svg xmlns="http://www.w3.org/2000/svg" viewBox="0 0 72 72" width="72" height="72" preserveAspectRatio="xMidYMid meet" style="width: 100%; height: 100%; transform: translate3d(0px, 0px, 0px);"><defs><clipPath id="__lottie_element_2"><rect width="72" height="72" x="0" y="0"></rect></clipPath></defs><g clip-path="url(#__lottie_element_2)"><g transform="matrix(1,0,0,1,36,36)" opacity="1" style="display: none;"><path stroke-linecap="butt" stroke-linejoin="miter" fill-opacity="0" stroke-miterlimit="4" stroke="rgb(207,207,207)" stroke-opacity="1" stroke-width="2" d=" M18.323999404907227,4.427999973297119 C18.323999404907227,4.427999973297119 18.28700065612793,14.213000297546387 18.28700065612793,14.213000297546387 C18.28700065612793,24.312999725341797 10.100000381469727,32.5 0,32.5 C0,32.5 0,32.5 0,32.5 C-10.100000381469727,32.5 -18.28700065612793,24.312999725341797 -18.28700065612793,14.213000297546387 C-18.28700065612793,14.213000297546387 -18.28700065612793,-14.213000297546387 -18.28700065612793,-14.213000297546387 C-18.28700065612793,-24.312999725341797 -10.100000381469727,-32.5 0,-32.5 C0,-32.5 0,-32.5 0,-32.5 C10.100000381469727,-32.5 18.28700065612793,-24.312999725341797 18.28700065612793,-14.213000297546387 C18.28700065612793,-14.213000297546387 18.28700065612793,7.375999927520752 18.28700065612793,7.375999927520752"></path></g><g transform="matrix(1,0,0,1,36,36)" opacity="1" style="display: block;"><path stroke-linecap="butt" stroke-linejoin="miter" fill-opacity="0" stroke-miterlimit="4" stroke="rgb(207,207,207)" stroke-opacity="1" stroke-width="2" d=" M3.686000108718872,32.12799835205078 C3.640000104904175,32.13800048828125 3.5940001010894775,32.14699935913086 3.5490000247955322,32.15599822998047"></path></g><g transform="matrix(1,0,0,1,36,36)" opacity="1" style="display: none;"><path stroke-linecap="butt" stroke-linejoin="miter" fill-opacity="0" stroke-miterlimit="4" stroke="rgb(155,55,255)" stroke-opacity="1" stroke-width="2" d="M0 0"></path></g><g transform="matrix(1,0,0,1,36,36)" opacity="1" style="display: block;"><path stroke-linecap="butt" stroke-linejoin="miter" fill-opacity="0" stroke-miterlimit="4" stroke="rgb(155,55,255)" stroke-opacity="1" stroke-width="2" d="M0 0"></path></g><g transform="matrix(1,0,0,1,36,51)" opacity="1" style="display: block;"><path stroke-linecap="butt" stroke-linejoin="miter" fill-opacity="0" stroke-miterlimit="4" stroke="rgb(155,55,255)" stroke-opacity="1" stroke-width="2" d="M0 0"></path></g><g transform="matrix(1,0,0,1,54,59.25)" opacity="1" style="display: block;"><path stroke-linecap="butt" stroke-linejoin="miter" fill-opacity="0" stroke-miterlimit="4" stroke="rgb(155,55,255)" stroke-opacity="1" stroke-width="2" d="M0 0"></path></g></g></svg>